:version 1.10
:name ASF
:units
  mass 1
  length 1
  angle deg
:documentation
  ASF file generated by Kaydara
:root
  axis xyz
  order  tx ty tz rx ry rz
  position 0 0 0
  orientation 0 0 0
:bonedata
  begin
    id 1
    name lfemurDummy
    direction 0.61522 -0.761478 0.204097
    length 5.68318
    axis 0 -0 0 xyz
  end
  begin
    id 2
    name lfemur
    direction 0.34202 -0.939693 -5.84747e-008
    length 16.9147
    axis 0 -0 20 xyz
    dof rx ry rz
    limits( -inf , inf )
( -inf , inf )
( -inf , inf )

  end
  begin
    id 3
    name ltibia
    direction 0.34202 -0.939693 1.20839e-009
    length 18.0532
    axis 0 -0 20 xyz
    dof rz ry rx
    limits( -inf , inf )
( -inf , inf )
( -inf , inf )

  end
  begin
    id 4
    name lfoot
    direction 0.0841971 -0.23133 0.969225
    length 5.23822
    axis -90 7.62852e-016 20 xyz
    dof ry rx rz
    limits( -inf , inf )
( -inf , inf )
( -inf , inf )

  end
  begin
    id 5
    name ltoes
    direction 0 0 0
    length 0
    axis 0 0 0 xyz
    dof rz ry rx
    limits( -inf , inf )
( -inf , inf )
( -inf , inf )

  end
  begin
    id 6
    name rfemurDummy
    direction -0.625247 -0.75382 0.202044
    length 5.74091
    axis 0 -0 0 xyz
  end
  begin
    id 7
    name rfemur
    direction -0.34202 -0.939693 -1.47013e-008
    length 16.4922
    axis 0 -0 -20 xyz
    dof rx ry rz
    limits( -inf , inf )
( -inf , inf )
( -inf , inf )

  end
  begin
    id 8
    name rtibia
    direction -0.34202 -0.939693 -7.74345e-010
    length 18.2421
    axis 0 -0 -20 xyz
    dof rz ry rx
    limits( -inf , inf )
( -inf , inf )
( -inf , inf )

  end
  begin
    id 9
    name rfoot
    direction -0.124331 -0.341598 0.931586
    length 5.45787
    axis -90 -7.62852e-016 -20 xyz
    dof ry rx rz
    limits( -inf , inf )
( -inf , inf )
( -inf , inf )

  end
  begin
    id 10
    name rtoes
    direction 0 0 0
    length 0
    axis 0 0 0 xyz
    dof rz ry rx
    limits( -inf , inf )
( -inf , inf )
( -inf , inf )

  end
  begin
    id 11
    name lowerbackDummy
    direction 0 0 0
    length 0
    axis 0 -0 0 xyz
  end
  begin
    id 12
    name lowerback
    direction -0.0218484 0.994884 -0.0986304
    length 4.45607
    axis 0 -0 0 xyz
    dof rx ry rz
    limits( -inf , inf )
( -inf , inf )
( -inf , inf )

  end
  begin
    id 13
    name upperback
    direction -0.00973057 0.999717 -0.0217111
    length 4.47449
    axis 0 -0 0 xyz
    dof rx ry rz
    limits( -inf , inf )
( -inf , inf )
( -inf , inf )

  end
  begin
    id 14
    name thorax
    direction -0.000928171 0.999699 0.0245198
    length 4.50973
    axis 0 -0 0 xyz
    dof rx ry rz
    limits( -inf , inf )
( -inf , inf )
( -inf , inf )

  end
  begin
    id 15
    name rclavicle
    direction -0.9009 0.425937 -0.0834055
    length 7.28587
    axis 0 -0 0 xyz
    dof rx ry rz
    limits( -inf , inf )
( -inf , inf )
( -inf , inf )

  end
  begin
    id 16
    name rhumerus
    direction -1 -2.23604e-007 -1.42637e-007
    length 13.5704
    axis 180 30 90 xyz
    dof rx ry rz
    limits( -inf , inf )
( -inf , inf )
( -inf , inf )

  end
  begin
    id 17
    name rradius
    direction -1 5.68281e-008 -4.4952e-007
    length 8.06782
    axis 180 30 90 xyz
    dof rz ry rx
    limits( -inf , inf )
( -inf , inf )
( -inf , inf )

  end
  begin
    id 18
    name rwrist
    direction -1 1.51393e-007 1.38143e-007
    length 4.03391
    axis -90 -90 0 xyz
    dof rz rx ry
    limits( -inf , inf )
( -inf , inf )
( -inf , inf )

  end
  begin
    id 19
    name rthumb
    direction 0 0 0
    length 0
    axis 0 0 0 xyz
    dof ry rx rz
    limits( -inf , inf )
( -inf , inf )
( -inf , inf )

  end
  begin
    id 20
    name rhand
    direction -1 -3.34077e-007 -5.59631e-007
    length 1.29744
    axis -90 -90 0 xyz
    dof ry rx rz
    limits( -inf , inf )
( -inf , inf )
( -inf , inf )

  end
  begin
    id 21
    name rfingers
    direction 0 0 0
    length 0
    axis 0 0 0 xyz
    dof rz ry rx
    limits( -inf , inf )
( -inf , inf )
( -inf , inf )

  end
  begin
    id 22
    name lclavicle
    direction 0.940017 0.332249 -0.0773232
    length 8.29589
    axis 0 -0 0 xyz
    dof rx ry rz
    limits( -inf , inf )
( -inf , inf )
( -inf , inf )

  end
  begin
    id 23
    name lhumerus
    direction 1 7.41158e-008 -1.44768e-008
    length 12.0042
    axis 180 -30 -90 xyz
    dof rx ry rz
    limits( -inf , inf )
( -inf , inf )
( -inf , inf )

  end
  begin
    id 24
    name lradius
    direction 1 -1.32972e-007 3.10821e-007
    length 8.1902
    axis 180 -30 -90 xyz
    dof rz ry rx
    limits( -inf , inf )
( -inf , inf )
( -inf , inf )

  end
  begin
    id 25
    name lwrist
    direction 1 3.08957e-007 4.01394e-007
    length 4.09509
    axis -90 90 0 xyz
    dof rz rx ry
    limits( -inf , inf )
( -inf , inf )
( -inf , inf )

  end
  begin
    id 26
    name lthumb
    direction 0 0 0
    length 0
    axis 0 0 0 xyz
    dof ry rx rz
    limits( -inf , inf )
( -inf , inf )
( -inf , inf )

  end
  begin
    id 27
    name lhand
    direction 1 -1.64125e-007 -6.99514e-007
    length 1.37229
    axis -90 90 0 xyz
    dof ry rx rz
    limits( -inf , inf )
( -inf , inf )
( -inf , inf )

  end
  begin
    id 28
    name lfingers
    direction 0 0 0
    length 0
    axis 0 0 0 xyz
    dof rz ry rx
    limits( -inf , inf )
( -inf , inf )
( -inf , inf )

  end
  begin
    id 29
    name lowerneck
    direction -0.030798 0.998024 0.0547665
    length 3.93918
    axis 0 -0 0 xyz
    dof rx ry rz
    limits( -inf , inf )
( -inf , inf )
( -inf , inf )

  end
  begin
    id 30
    name upperneck
    direction 0.0531588 0.996611 -0.0627736
    length 3.95491
    axis 0 -0 0 xyz
    dof rx ry rz
    limits( -inf , inf )
( -inf , inf )
( -inf , inf )

  end
  begin
    id 31
    name head
    direction 0 0 0
    length 0
    axis 0 0 0 xyz
    dof rx ry rz
    limits( -inf , inf )
( -inf , inf )
( -inf , inf )

  end
:hierarchy
  begin
    root lfemurDummy rfemurDummy lowerbackDummy
    lfemurDummy lfemur
    lfemur ltibia
    ltibia lfoot
    lfoot ltoes
    rfemurDummy rfemur
    rfemur rtibia
    rtibia rfoot
    rfoot rtoes
    lowerbackDummy lowerback
    lowerback upperback
    upperback thorax
    thorax rclavicle lclavicle lowerneck
    rclavicle rhumerus
    rhumerus rradius
    rradius rwrist
    rwrist rthumb rhand
    rhand rfingers
    lclavicle lhumerus
    lhumerus lradius
    lradius lwrist
    lwrist lthumb lhand
    lhand lfingers
    lowerneck upperneck
    upperneck head
  end

:SAMPLES-PER-SECOND 30
:FULLY-SPECIFIED
:DEGREES
10
root  7.13477773 36.51711171 -2.402599965 -1.955001831 -67.58399963 -5.781005859
lowerback  13.7439003 3.035219908 -1.641100049
upperback  3.830840111 3.635839939 -0.5407829881
thorax  -3.720489979 1.752130032 -0.2448620051
lowerneck  -7.26072979 3.627370119 -8.321299553
upperneck  11.91279984 5.280910015 4.630609989
head  4.40707016 2.486819983 3.077980042
lclavicle  0 -9.442270133e-015 7.951389973e-016
lhumerus  2.700920105 -13.25199986 70.18180084
lradius  2.434329401e-031 -2.557906254e-031 133.5820007
lwrist  -1.412450015e-030 -0 10.18780041
lhand  -1.496451383e-031 -27.76390076 20.11240005
lfingers  90 7.125020027 -90
lthumb  89.89689403 5.08795885 91.16245106
rclavicle  0 -9.442270133e-015 7.951389973e-016
rhumerus  -12.11219978 23.65130043 -84.83599854
rradius  -1.910818711e-031 2.969447068e-031 122.7610016
rwrist  7.062250077e-031 -3.531125038e-031 1.704180002
rhand  -7.920061211e-032 -33.2840004 9.303460121
rfingers  -90 -7.125020027 -90
rthumb  -92.93752616 -24.25625642 -97.11982154
rfemur  -6.864610195 10.03040028 4.921770096
rtibia  -0 0 63.07130051
rfoot  -9.335944267e-032 -18.9904995 4.112020016
rtoes  5.373923086 19.29304026 -105.8922705
lfemur  -32.26549911 0.7210100293 7.026649952
ltibia  -0 0 62.26869965
lfoot  -0 -1.72905004 -13.6395998
ltoes  -4.250644065 -19.5611806 -102.515957
11
root  7.004999927 36.35555478 -2.377533349 -1.850006104 -68.35099792 -5.95199585
lowerback  13.34210014 3.432660103 -1.433750033
upperback  3.747270107 4.195290089 -0.6926320195
thorax  -3.569649935 2.030869961 -0.5916510224
lowerneck  -7.388679981 3.703870058 -8.383839607
upperneck  11.91049957 5.38932991 4.757400036
head  4.414629936 2.546960115 3.135449886
lclavicle  0 -9.442270133e-015 7.951389973e-016
lhumerus  2.316420078 -13.92430019 70.97949982
lradius  2.433703976e-031 -2.558501318e-031 133.5679932
lwrist  -7.062250077e-031 -0 9.902079582
lhand  -1.496451383e-031 -27.76390076 20.11240005
lfingers  90 7.125020027 -90
lthumb  89.89689403 5.08795885 91.16245106
rclavicle  0 -9.442270133e-015 7.951389973e-016
rhumerus  -12.13819981 23.73880005 -85.07180023
rradius  -1.866138792e-031 2.99772748e-031 121.9029999
rwrist  1.059337512e-030 -3.531125038e-031 1.997979999
rhand  -7.920061211e-032 -33.2840004 9.303460121
rfingers  -90 -7.125020027 -90
rthumb  -92.93752616 -24.25625642 -97.11982154
rfemur  -6.967380047 8.543250084 5.223279953
rtibia  -0 0 64.12979889
rfoot  -5.880852773e-032 -20.24950027 -1.561640024
rtoes  5.373923086 19.29304026 -105.8922705
lfemur  -31.35309982 -0.2684719861 7.439370155
ltibia  -0 0 60.71820068
lfoot  -0 -0.367565006 -15.32540035
ltoes  -4.250644065 -19.5611806 -102.515957
12
root  6.884155874 36.08933396 -2.354333344 -1.645996094 -69.28399658 -6.195999146
lowerback  12.87979984 3.807620049 -1.140589952
upperback  3.634249926 4.732629776 -0.9439290166
thorax  -3.393480062 2.299629927 -1.075489998
lowerneck  -7.578010082 3.802010059 -8.055709839
upperneck  11.92619991 5.513529778 4.640540123
head  4.455289841 2.617019892 3.05817008
lclavicle  0 -9.442270133e-015 7.951389973e-016
lhumerus  2.066529989 -14.52670002 71.4477005
lradius  2.435891646e-031 -2.556418574e-031 133.6170044
lwrist  -7.062250077e-031 -0 9.537449837
lhand  -1.496451383e-031 -27.76390076 20.11240005
lfingers  90 7.125020027 -90
lthumb  89.89689403 5.08795885 91.16245106
rclavicle  0 -9.442270133e-015 7.951389973e-016
rhumerus  -12.05070019 23.88689995 -85.52359772
rradius  -1.808457888e-031 3.032873902e-031 120.8069992
rwrist  3.531125038e-031 -3.531125038e-031 2.022789955
rhand  -7.920061211e-032 -33.2840004 9.303460121
rfingers  -90 -7.125020027 -90
rthumb  -92.93752616 -24.25625642 -97.11982154
rfemur  -6.875430107 8.574760437 5.298099995
rtibia  -0 0 64.70079803
rfoot  -4.748597034e-032 -21.64019966 -2.766940117
rtoes  5.373923086 19.29304026 -105.8922705
lfemur  -30.50370026 -1.088680029 7.975860119
ltibia  -0 0 59.82350159
lfoot  -0 -2.394020081 -16.23410034
ltoes  -4.250644065 -19.5611806 -102.515957
13
root  6.75615551 35.84422314 -2.321088971 -1.893997192 -70.26499939 -5.925003052
lowerback  12.32820034 4.13161993 -1.014719963
upperback  3.487040043 5.181250095 -1.238270044
thorax  -3.205460072 2.526200056 -1.484200001
lowerneck  -7.749149799 3.930999994 -7.849909782
upperneck  11.84689999 5.687389851 4.571149826
head  4.456299782 2.711009979 3.014919996
lclavicle  0 -9.442270133e-015 7.951389973e-016
lhumerus  1.595909953 -14.85389996 71.91419983
lradius  2.443688544e-031 -2.548966524e-031 133.7920074
lwrist  -1.412450015e-030 -1.765562519e-031 9.348349571
lhand  -1.496451383e-031 -27.76390076 20.11240005
lfingers  90 7.125020027 -90
lthumb  89.89689403 5.08795885 91.16245106
rclavicle  0 -9.442270133e-015 7.951389973e-016
rhumerus  -11.80819988 24.30400085 -85.98680115
rradius  -1.731401806e-031 3.077513903e-031 119.3619995
rwrist  7.062250077e-031 -0 1.882670045
rhand  -7.920061211e-032 -33.2840004 9.303460121
rfingers  -90 -7.125020027 -90
rthumb  -92.93752616 -24.25625642 -97.11982154
rfemur  -6.823490143 8.818050385 5.148960114
rtibia  -0 0 65.21440125
rfoot  -4.81477985e-032 -23.54579926 -4.013100147
rtoes  5.373923086 19.29304026 -105.8922705
lfemur  -29.61400032 -1.907199979 8.297639847
ltibia  -0 0 59.62099838
lfoot  -0 -5.344540119 -13.52149963
ltoes  -4.250644065 -19.5611806 -102.515957
14
root  6.614444763 35.61577684 -2.282355526 -2.67199707 -71.23899841 -5.169998169
lowerback  11.74790001 4.385890007 -1.073789954
upperback  3.40102005 5.517889977 -1.47645998
thorax  -2.955970049 2.697550058 -1.703609943
lowerneck  -8.036899567 4.110889912 -8.081930161
upperneck  11.65540028 5.973309994 4.695740223
head  4.416359901 2.856920004 3.107209921
lclavicle  0 -9.442270133e-015 7.951389973e-016
lhumerus  0.9966260195 -14.86299992 72.47299957
lradius  2.455982755e-031 -2.537122926e-031 134.0690002
lwrist  -7.062250077e-031 -1.765562519e-031 9.311730385
lhand  -1.496451383e-031 -27.76390076 20.11240005
lfingers  90 7.125020027 -90
lthumb  89.89689403 5.08795885 91.16245106
rclavicle  0 -9.442270133e-015 7.951389973e-016
rhumerus  -11.33889961 24.95779991 -86.21769714
rradius  -1.639941716e-031 3.127208852e-031 117.6729965
rwrist  1.059337512e-030 -0 1.560369968
rhand  -7.920061211e-032 -33.2840004 9.303460121
rfingers  -90 -7.125020027 -90
rthumb  -92.93752616 -24.25625642 -97.11982154
rfemur  -6.585519791 9.228210449 4.766560078
rtibia  -0 0 65.3184967
rfoot  -4.89403919e-032 -25.59180069 -4.443449974
rtoes  5.373923086 19.29304026 -105.8922705
lfemur  -28.77960014 -2.768460035 8.398420334
ltibia  -0 0 60.14360046
lfoot  -0 -7.62278986 -11.38720036
ltoes  -4.250644065 -19.5611806 -102.515957
15
root  6.474778033 35.36888783 -2.240022149 -3.781005859 -72.23500061 -4.233001709
lowerback  11.31050014 4.561560154 -1.201519966
upperback  3.357569933 5.742249966 -1.641010046
thorax  -2.754080057 2.81182003 -1.798650026
lowerneck  -8.515049934 4.374310017 -8.357549667
upperneck  11.60589981 6.410049915 4.684899807
head  4.444469929 3.064680099 3.181210041
lclavicle  0 -9.442270133e-015 7.951389973e-016
lhumerus  0.2883679867 -14.57759953 73.07620239
lradius  2.468263952e-031 -2.525176648e-031 134.3470001
lwrist  -1.412450015e-030 -1.765562519e-031 8.987609863
lhand  -1.496451383e-031 -27.76390076 20.11240005
lfingers  90 7.125020027 -90
lthumb  89.89689403 5.08795885 91.16245106
rclavicle  0 -9.442270133e-015 7.951389973e-016
rhumerus  -10.67500019 25.78170013 -86.40989685
rradius  -1.536966513e-031 3.179084456e-031 115.802002
rwrist  7.062250077e-031 -0 1.191210032
rhand  -7.920061211e-032 -33.2840004 9.303460121
rfingers  -90 -7.125020027 -90
rthumb  -92.93752616 -24.25625642 -97.11982154
rfemur  -6.247570038 9.788200378 4.244420052
rtibia  -0 0 65.37670135
rfoot  -4.974861676e-032 -27.47130013 -4.222760201
rtoes  5.373923086 19.29304026 -105.8922705
lfemur  -27.96640015 -3.357609987 8.337579727
ltibia  -0 0 61.10520172
lfoot  -0 -9.218660355 -12.48560047
ltoes  -4.250644065 -19.5611806 -102.515957
16
root  6.33791075 35.10511203 -2.197793337 -4.929000854 -73.27500153 -3.42199707
lowerback  11.05029964 4.767069817 -1.344889998
upperback  3.261420012 6.002590179 -1.74872005
thorax  -2.710180044 2.942840099 -1.847550035
lowerneck  -8.950920105 4.700560093 -8.301320076
upperneck  11.75090027 6.910260201 4.443799973
head  4.540120125 3.296839952 3.139820099
lclavicle  0 -9.442270133e-015 7.951389973e-016
lhumerus  -0.5203559995 -14.38329983 73.72519684
lradius  2.480311678e-031 -2.513343991e-031 134.6210022
lwrist  -7.062250077e-031 -1.765562519e-031 8.523799896
lhand  -1.496451383e-031 -27.76390076 20.11240005
lfingers  90 7.125020027 -90
lthumb  89.89689403 5.08795885 91.16245106
rclavicle  0 -9.442270133e-015 7.951389973e-016
rhumerus  -10.01049995 26.51079941 -86.70120239
rradius  -1.418311966e-031 3.233764865e-031 113.6819992
rwrist  7.062250077e-031 -3.531125038e-031 0.6555060148
rhand  -7.920061211e-032 -33.2840004 9.303460121
rfingers  -90 -7.125020027 -90
rthumb  -92.93752616 -24.25625642 -97.11982154
rfemur  -5.844270229 10.55039978 3.768100023
rtibia  -0 0 65.4835968
rfoot  -5.032232318e-032 -28.70229912 -3.996059895
rtoes  5.373923086 19.29304026 -105.8922705
lfemur  -27.19499969 -3.456799984 8.232219696
ltibia  -0 0 62.28850174
lfoot  -0 -11.13920021 -12.33510017
ltoes  -4.250644065 -19.5611806 -102.515957
17
root  6.194489021 34.84600097 -2.163146612 -6.151000977 -74.25700378 -2.598999023
lowerback  10.80869961 4.99243021 -1.577950001
upperback  3.149039984 6.280399799 -1.834840059
thorax  -2.705070019 3.082360029 -1.828809977
lowerneck  -9.249099731 5.017429829 -8.07297039
upperneck  11.79329967 7.368730068 4.149690151
head  4.59389019 3.513299942 3.047250032
lclavicle  0 -9.442270133e-015 7.951389973e-016
lhumerus  -1.302209973 -14.37030029 74.37259674
lradius  2.493524818e-031 -2.500235593e-031 134.9230042
lwrist  -7.062250077e-031 -0 8.037619591
lhand  -1.496451383e-031 -27.76390076 20.11240005
lfingers  90 7.125020027 -90
lthumb  89.89689403 5.08795885 91.16245106
rclavicle  0 -9.442270133e-015 7.951389973e-016
rhumerus  -9.338979721 27.16500092 -86.97650146
rradius  -1.289917459e-031 3.28708944e-031 111.4260025
rwrist  7.062250077e-031 -3.531125038e-031 -0.07488740236
rhand  -7.920061211e-032 -33.2840004 9.303460121
rfingers  -90 -7.125020027 -90
rthumb  -92.93752616 -24.25625642 -97.11982154
rfemur  -5.431610107 11.42070007 3.329489946
rtibia  -0 0 65.66829681
rfoot  -5.083509477e-032 -29.74069977 -3.607650042
rtoes  5.373923086 19.29304026 -105.8922705
lfemur  -26.54380035 -3.531169891 8.092690468
ltibia  -0 0 63.52619934
lfoot  -0 -12.89820004 -10.75870037
ltoes  -4.250644065 -19.5611806 -102.515957
18
root  6.046089037 34.59488876 -2.139215582 -6.93699646 -75.21600342 -2.382995605
lowerback  10.62880039 5.182010174 -1.684739947
upperback  3.073430061 6.525690079 -1.859619975
thorax  -2.690229893 3.205389977 -1.814689994
lowerneck  -9.43653965 5.361499786 -7.914000034
upperneck  11.70750046 7.845920086 3.999130011
head  4.581590176 3.748090029 3.003900051
lclavicle  0 -9.442270133e-015 7.951389973e-016
lhumerus  -1.991670012 -14.34869957 75.01049805
lradius  2.505191876e-031 -2.488545298e-031 135.1909943
lwrist  -7.062250077e-031 1.765562519e-031 7.725800037
lhand  -1.496451383e-031 -27.76390076 20.11240005
lfingers  90 7.125020027 -90
lthumb  89.89689403 5.08795885 91.16245106
rclavicle  0 -9.442270133e-015 7.951389973e-016
rhumerus  -8.623709679 27.86339951 -87.20320129
rradius  -1.155971502e-031 3.336551202e-031 109.1090012
rwrist  7.062250077e-031 -3.531125038e-031 -0.7470610142
rhand  -7.920061211e-032 -33.2840004 9.303460121
rfingers  -90 -7.125020027 -90
rthumb  -92.93752616 -24.25625642 -97.11982154
rfemur  -4.90489006 12.42109966 3.211050034
rtibia  -0 0 65.89360046
rfoot  -5.146250654e-032 -30.94140053 -2.987799883
rtoes  5.373923086 19.29304026 -105.8922705
lfemur  -25.85630035 -3.572799921 8.169639587
ltibia  -0 0 64.8219986
lfoot  -0 -13.45049953 -9.718270302
ltoes  -4.250644065 -19.5611806 -102.515957
